<svg width="149" height="21" viewBox="0 0 149 21" fill="none" xmlns="http://www.w3.org/2000/svg">
<path d="M9.608 20.39C8.29067 20.39 7.05133 20.1473 5.89 19.662C4.746 19.1767 3.732 18.5007 2.848 17.634C1.98133 16.75 1.30533 15.736 0.82 14.592C0.334667 13.448 0.0920001 12.2173 0.0920001 10.9C0.0920001 9.58267 0.334667 8.352 0.82 7.208C1.30533 6.064 1.98133 5.05867 2.848 4.192C3.732 3.32533 4.746 2.64933 5.89 2.164C7.05133 1.66133 8.29067 1.41 9.608 1.41C10.9253 1.41 12.156 1.66133 13.3 2.164C14.4613 2.64933 15.4753 3.32533 16.342 4.192C17.226 5.05867 17.9107 6.064 18.396 7.208C18.8813 8.352 19.124 9.58267 19.124 10.9C19.124 12.2173 18.8813 13.448 18.396 14.592C17.9107 15.736 17.226 16.75 16.342 17.634C15.4753 18.5007 14.4613 19.1767 13.3 19.662C12.156 20.1473 10.9253 20.39 9.608 20.39ZM9.608 18.336C10.648 18.336 11.61 18.1453 12.494 17.764C13.3953 17.3827 14.1753 16.854 14.834 16.178C15.51 15.4847 16.0387 14.6873 16.42 13.786C16.8013 12.8847 16.992 11.9227 16.992 10.9C16.992 9.86 16.8013 8.898 16.42 8.014C16.0387 7.11267 15.51 6.324 14.834 5.648C14.1753 4.972 13.3953 4.44333 12.494 4.062C11.61 3.68067 10.648 3.49 9.608 3.49C8.58533 3.49 7.62333 3.68067 6.722 4.062C5.82067 4.44333 5.032 4.972 4.356 5.648C3.68 6.324 3.15133 7.11267 2.77 8.014C2.38867 8.898 2.198 9.86 2.198 10.9C2.198 11.9227 2.38867 12.8847 2.77 13.786C3.15133 14.6873 3.68 15.4847 4.356 16.178C5.032 16.854 5.82067 17.3827 6.722 17.764C7.62333 18.1453 8.58533 18.336 9.608 18.336ZM10.128 15.788C9.07067 15.7707 8.16067 15.5453 7.398 15.112C6.65267 14.6613 6.08067 14.072 5.682 13.344C5.28333 12.5987 5.084 11.784 5.084 10.9C5.084 10.016 5.28333 9.21 5.682 8.482C6.08067 7.73667 6.65267 7.14733 7.398 6.714C8.16067 6.26333 9.07067 6.038 10.128 6.038H11.74V8.508H10.18C9.72933 8.508 9.31333 8.612 8.932 8.82C8.568 9.028 8.27333 9.314 8.048 9.678C7.84 10.0247 7.736 10.432 7.736 10.9C7.736 11.368 7.84 11.784 8.048 12.148C8.27333 12.512 8.568 12.798 8.932 13.006C9.31333 13.1967 9.72933 13.292 10.18 13.292H11.74V15.788H10.128ZM28.9118 20.312C27.4731 20.312 26.1991 20.026 25.0898 19.454C23.9978 18.8647 23.1398 18.024 22.5158 16.932C21.8918 15.84 21.5798 14.5487 21.5798 13.058V1.8H25.8698V13.214C25.8698 13.838 25.9911 14.4013 26.2338 14.904C26.4764 15.4067 26.8231 15.8053 27.2738 16.1C27.7418 16.3947 28.2878 16.542 28.9118 16.542C29.5358 16.542 30.0731 16.3947 30.5238 16.1C30.9744 15.8053 31.3211 15.4067 31.5638 14.904C31.8238 14.4013 31.9538 13.838 31.9538 13.214V1.8H36.2438V13.214C36.2438 13.838 36.3651 14.4013 36.6078 14.904C36.8504 15.4067 37.1971 15.8053 37.6478 16.1C38.1158 16.3947 38.6618 16.542 39.2858 16.542C39.9098 16.542 40.4471 16.3947 40.8978 16.1C41.3658 15.8053 41.7211 15.4067 41.9638 14.904C42.2064 14.4013 42.3278 13.838 42.3278 13.214V1.8H46.6178V13.058C46.6178 14.5487 46.3058 15.84 45.6818 16.932C45.0578 18.024 44.1911 18.8647 43.0818 19.454C41.9898 20.026 40.7244 20.312 39.2858 20.312C38.5751 20.312 37.8991 20.2253 37.2578 20.052C36.6338 19.896 36.0531 19.6533 35.5158 19.324C34.9958 18.9947 34.5191 18.596 34.0858 18.128C33.6698 18.596 33.1931 18.9947 32.6558 19.324C32.1184 19.636 31.5378 19.8787 30.9138 20.052C30.2898 20.2253 29.6224 20.312 28.9118 20.312ZM56.5053 20C54.9973 20 53.6713 19.7227 52.5273 19.168C51.3833 18.596 50.4906 17.816 49.8493 16.828C49.2253 15.8227 48.9133 14.6613 48.9133 13.344C48.9133 11.888 49.2166 10.64 49.8233 9.6C50.43 8.56 51.236 7.76267 52.2413 7.208C53.264 6.636 54.3906 6.35 55.6213 6.35C57.0253 6.35 58.1953 6.64467 59.1313 7.234C60.0846 7.82333 60.804 8.62933 61.2893 9.652C61.7746 10.6573 62.0173 11.81 62.0173 13.11C62.0173 13.3353 62 13.604 61.9653 13.916C61.948 14.2107 61.922 14.4447 61.8873 14.618H53.1513C53.2553 15.0687 53.4546 15.45 53.7493 15.762C54.044 16.074 54.4166 16.308 54.8673 16.464C55.318 16.6027 55.8206 16.672 56.3753 16.672H60.4573V20H56.5053ZM53.0473 12.096H58.1173C58.0826 11.8187 58.0306 11.55 57.9613 11.29C57.892 11.03 57.7793 10.8047 57.6233 10.614C57.4846 10.406 57.32 10.2327 57.1293 10.094C56.9386 9.938 56.7133 9.81667 56.4533 9.73C56.2106 9.64333 55.9333 9.6 55.6213 9.6C55.2226 9.6 54.8673 9.66933 54.5553 9.808C54.2433 9.94667 53.9833 10.1373 53.7753 10.38C53.5673 10.6053 53.4026 10.874 53.2813 11.186C53.1773 11.4807 53.0993 11.784 53.0473 12.096ZM71.4114 20.312C69.9728 20.312 68.7161 20.0173 67.6414 19.428C66.5668 18.8387 65.7348 17.998 65.1454 16.906C64.5561 15.814 64.2614 14.54 64.2614 13.084V1.02H68.2914V8.118H68.3694C68.6294 7.754 68.9501 7.442 69.3314 7.182C69.7301 6.90467 70.1634 6.69667 70.6314 6.558C71.1168 6.41933 71.6281 6.35 72.1654 6.35C73.4308 6.35 74.5401 6.636 75.4934 7.208C76.4468 7.78 77.1921 8.56867 77.7294 9.574C78.2841 10.5793 78.5614 11.758 78.5614 13.11C78.5614 14.15 78.3968 15.112 78.0674 15.996C77.7381 16.88 77.2614 17.6513 76.6374 18.31C76.0308 18.9513 75.2854 19.4453 74.4014 19.792C73.5348 20.1387 72.5381 20.312 71.4114 20.312ZM71.4114 16.828C72.0354 16.828 72.5728 16.6807 73.0234 16.386C73.4741 16.074 73.8208 15.658 74.0634 15.138C74.3234 14.6007 74.4534 14.0027 74.4534 13.344C74.4534 12.6853 74.3234 12.096 74.0634 11.576C73.8208 11.056 73.4741 10.6487 73.0234 10.354C72.5728 10.042 72.0354 9.886 71.4114 9.886C70.7874 9.886 70.2414 10.042 69.7734 10.354C69.3228 10.6487 68.9761 11.056 68.7334 11.576C68.4908 12.096 68.3694 12.6853 68.3694 13.344C68.3694 14.0027 68.4908 14.6007 68.7334 15.138C68.9761 15.658 69.3228 16.074 69.7734 16.386C70.2414 16.6807 70.7874 16.828 71.4114 16.828ZM81.1275 20V16.36H88.9015C89.2482 16.36 89.5602 16.2733 89.8375 16.1C90.1148 15.9267 90.3315 15.7013 90.4875 15.424C90.6608 15.1467 90.7475 14.8433 90.7475 14.514C90.7475 14.1673 90.6608 13.8553 90.4875 13.578C90.3315 13.3007 90.1148 13.0753 89.8375 12.902C89.5602 12.7287 89.2482 12.642 88.9015 12.642H86.0935C85.0362 12.642 84.0742 12.434 83.2075 12.018C82.3408 11.602 81.6475 10.9953 81.1275 10.198C80.6248 9.38333 80.3735 8.41267 80.3735 7.286C80.3735 6.17667 80.6162 5.21467 81.1015 4.4C81.5868 3.58533 82.2455 2.95267 83.0775 2.502C83.9095 2.034 84.8282 1.8 85.8335 1.8H93.8675V5.44H86.3275C86.0155 5.44 85.7295 5.518 85.4695 5.674C85.2095 5.83 85.0102 6.038 84.8715 6.298C84.7328 6.558 84.6635 6.844 84.6635 7.156C84.6635 7.468 84.7328 7.754 84.8715 8.014C85.0102 8.25667 85.2095 8.456 85.4695 8.612C85.7295 8.768 86.0155 8.846 86.3275 8.846H89.2655C90.4268 8.846 91.4322 9.07133 92.2815 9.522C93.1482 9.95533 93.8155 10.5707 94.2835 11.368C94.7688 12.148 95.0115 13.0667 95.0115 14.124C95.0115 15.372 94.7602 16.438 94.2575 17.322C93.7722 18.1887 93.1135 18.856 92.2815 19.324C91.4495 19.7747 90.5308 20 89.5255 20H81.1275ZM97.3478 20V12.122C97.3478 11.03 97.5992 10.0507 98.1018 9.184C98.6218 8.3 99.3585 7.60667 100.312 7.104C101.265 6.60133 102.401 6.35 103.718 6.35C104.377 6.35 104.983 6.428 105.538 6.584C106.093 6.72267 106.595 6.922 107.046 7.182C107.514 7.42467 107.913 7.71933 108.242 8.066H108.294C108.641 7.71933 109.039 7.42467 109.49 7.182C109.958 6.922 110.469 6.72267 111.024 6.584C111.596 6.428 112.211 6.35 112.87 6.35C114.187 6.35 115.323 6.60133 116.276 7.104C117.229 7.60667 117.966 8.3 118.486 9.184C119.006 10.0507 119.266 11.03 119.266 12.122V20H115.21V12.252C115.21 11.8187 115.097 11.4287 114.872 11.082C114.664 10.718 114.378 10.4233 114.014 10.198C113.65 9.97267 113.234 9.86 112.766 9.86C112.298 9.86 111.873 9.97267 111.492 10.198C111.128 10.4233 110.842 10.718 110.634 11.082C110.426 11.4287 110.322 11.8187 110.322 12.252V20H106.292V12.252C106.292 11.8187 106.179 11.4287 105.954 11.082C105.746 10.718 105.451 10.4233 105.07 10.198C104.706 9.97267 104.29 9.86 103.822 9.86C103.354 9.86 102.929 9.97267 102.548 10.198C102.184 10.4233 101.898 10.718 101.69 11.082C101.482 11.4287 101.378 11.8187 101.378 12.252V20H97.3478ZM122.256 20V6.662H126.312V20H122.256ZM124.284 5.154C123.643 5.154 123.088 4.92 122.62 4.452C122.152 3.984 121.918 3.42933 121.918 2.788C121.918 2.14667 122.152 1.592 122.62 1.124C123.088 0.638666 123.643 0.396 124.284 0.396C124.925 0.396 125.48 0.638666 125.948 1.124C126.416 1.592 126.65 2.14667 126.65 2.788C126.65 3.42933 126.416 3.984 125.948 4.452C125.48 4.92 124.925 5.154 124.284 5.154ZM129.264 20V1.02H133.294V20H129.264ZM143.24 20C141.732 20 140.406 19.7227 139.262 19.168C138.118 18.596 137.225 17.816 136.584 16.828C135.96 15.8227 135.648 14.6613 135.648 13.344C135.648 11.888 135.951 10.64 136.558 9.6C137.164 8.56 137.97 7.76267 138.976 7.208C139.998 6.636 141.125 6.35 142.356 6.35C143.76 6.35 144.93 6.64467 145.866 7.234C146.819 7.82333 147.538 8.62933 148.024 9.652C148.509 10.6573 148.752 11.81 148.752 13.11C148.752 13.3353 148.734 13.604 148.7 13.916C148.682 14.2107 148.656 14.4447 148.622 14.618H139.886C139.99 15.0687 140.189 15.45 140.484 15.762C140.778 16.074 141.151 16.308 141.602 16.464C142.052 16.6027 142.555 16.672 143.11 16.672H147.192V20H143.24ZM139.782 12.096H144.852C144.817 11.8187 144.765 11.55 144.696 11.29C144.626 11.03 144.514 10.8047 144.358 10.614C144.219 10.406 144.054 10.2327 143.864 10.094C143.673 9.938 143.448 9.81667 143.188 9.73C142.945 9.64333 142.668 9.6 142.356 9.6C141.957 9.6 141.602 9.66933 141.29 9.808C140.978 9.94667 140.718 10.1373 140.51 10.38C140.302 10.6053 140.137 10.874 140.016 11.186C139.912 11.4807 139.834 11.784 139.782 12.096Z" fill="#F9F9F9"/>
</svg>
