<svg width="118" height="20" viewBox="0 0 118 20" fill="none" xmlns="http://www.w3.org/2000/svg">
<path d="M7.064 19.288C5.752 19.288 4.584 19.024 3.56 18.496C2.536 17.952 1.736 17.176 1.16 16.168C0.584 15.16 0.296 13.968 0.296 12.592V2.2H4.256V12.736C4.256 13.6 4.504 14.328 5 14.92C5.512 15.512 6.2 15.808 7.064 15.808C7.928 15.808 8.608 15.512 9.104 14.92C9.616 14.328 9.872 13.6 9.872 12.736V2.2H13.832V12.736C13.832 13.6 14.08 14.328 14.576 14.92C15.088 15.512 15.776 15.808 16.64 15.808C17.504 15.808 18.184 15.512 18.68 14.92C19.192 14.328 19.448 13.6 19.448 12.736V2.2H23.408V12.592C23.408 13.968 23.12 15.16 22.544 16.168C21.968 17.176 21.168 17.952 20.144 18.496C19.136 19.024 17.968 19.288 16.64 19.288C15.648 19.288 14.744 19.12 13.928 18.784C13.112 18.432 12.416 17.928 11.84 17.272C11.248 17.912 10.544 18.408 9.728 18.76C8.928 19.112 8.04 19.288 7.064 19.288ZM32.5349 19C31.1429 19 29.9189 18.744 28.8629 18.232C27.8069 17.704 26.9829 16.984 26.3909 16.072C25.8149 15.144 25.5269 14.072 25.5269 12.856C25.5269 11.512 25.8069 10.36 26.3669 9.4C26.9269 8.44 27.6709 7.704 28.5989 7.192C29.5429 6.664 30.5829 6.4 31.7189 6.4C33.0149 6.4 34.0949 6.672 34.9589 7.216C35.8389 7.76 36.5029 8.504 36.9509 9.448C37.3989 10.392 37.6229 11.456 37.6229 12.64C37.6229 12.864 37.6069 13.112 37.5749 13.384C37.5589 13.656 37.5349 13.872 37.5029 14.032H29.4389C29.5829 14.672 29.9189 15.152 30.4469 15.472C30.9749 15.776 31.6309 15.928 32.4149 15.928H36.1829V19H32.5349ZM29.3429 11.704H34.0229C33.9749 11.032 33.7589 10.48 33.3749 10.048C32.9909 9.616 32.4389 9.4 31.7189 9.4C30.9669 9.4 30.3989 9.64 30.0149 10.12C29.6469 10.584 29.4229 11.112 29.3429 11.704ZM46.2944 19.288C44.9504 19.288 43.7824 19.016 42.7904 18.472C41.8144 17.928 41.0544 17.16 40.5104 16.168C39.9664 15.16 39.6944 13.976 39.6944 12.616V1.48H43.4144V8.032H43.4864C43.8544 7.52 44.3424 7.12 44.9504 6.832C45.5744 6.544 46.2544 6.4 46.9904 6.4C48.1424 6.4 49.1584 6.664 50.0384 7.192C50.9344 7.72 51.6304 8.456 52.1264 9.4C52.6384 10.328 52.8944 11.408 52.8944 12.64C52.8944 13.92 52.6304 15.064 52.1024 16.072C51.5744 17.08 50.8144 17.872 49.8224 18.448C48.8464 19.008 47.6704 19.288 46.2944 19.288ZM46.2944 16.072C47.1424 16.072 47.8224 15.768 48.3344 15.16C48.8464 14.536 49.1024 13.768 49.1024 12.856C49.1024 11.96 48.8464 11.208 48.3344 10.6C47.8224 9.976 47.1424 9.664 46.2944 9.664C45.4304 9.664 44.7424 9.976 44.2304 10.6C43.7344 11.208 43.4864 11.96 43.4864 12.856C43.4864 13.768 43.7344 14.536 44.2304 15.16C44.7424 15.768 45.4304 16.072 46.2944 16.072ZM55.2631 19V15.64H62.4391C62.9031 15.64 63.3031 15.472 63.6391 15.136C63.9751 14.784 64.1431 14.384 64.1431 13.936C64.1431 13.456 63.9751 13.048 63.6391 12.712C63.3031 12.376 62.9031 12.208 62.4391 12.208H59.8471C58.8711 12.208 57.9831 12.016 57.1831 11.632C56.3831 11.232 55.7431 10.664 55.2631 9.928C54.7991 9.192 54.5671 8.304 54.5671 7.264C54.5671 6.256 54.7911 5.376 55.2391 4.624C55.7031 3.856 56.3111 3.264 57.0631 2.848C57.8311 2.416 58.6791 2.2 59.6071 2.2H67.0231V5.56H60.0631C59.6151 5.56 59.2471 5.72 58.9591 6.04C58.6711 6.344 58.5271 6.712 58.5271 7.144C58.5271 7.576 58.6711 7.944 58.9591 8.248C59.2471 8.552 59.6151 8.704 60.0631 8.704H62.7751C63.8311 8.704 64.7591 8.912 65.5591 9.328C66.3591 9.728 66.9751 10.296 67.4071 11.032C67.8551 11.752 68.0791 12.6 68.0791 13.576C68.0791 14.728 67.8471 15.712 67.3831 16.528C66.9351 17.328 66.3271 17.944 65.5591 18.376C64.7911 18.792 63.9431 19 63.0151 19H55.2631ZM70.2358 19V11.728C70.2358 10.72 70.4678 9.816 70.9318 9.016C71.4118 8.216 72.0918 7.584 72.9718 7.12C73.8518 6.64 74.8998 6.4 76.1158 6.4C77.0118 6.4 77.8118 6.544 78.5158 6.832C79.2358 7.12 79.8278 7.504 80.2918 7.984H80.3398C80.8198 7.504 81.4118 7.12 82.1158 6.832C82.8358 6.544 83.6518 6.4 84.5638 6.4C85.7798 6.4 86.8278 6.64 87.7078 7.12C88.5878 7.584 89.2678 8.216 89.7478 9.016C90.2278 9.816 90.4678 10.72 90.4678 11.728V19H86.7238V11.848C86.7238 11.24 86.5078 10.72 86.0758 10.288C85.6598 9.856 85.1238 9.64 84.4678 9.64C83.8118 9.64 83.2678 9.856 82.8358 10.288C82.4198 10.72 82.2118 11.24 82.2118 11.848V19H78.4918V11.848C78.4918 11.24 78.2678 10.72 77.8198 10.288C77.3878 9.856 76.8518 9.64 76.2118 9.64C75.5558 9.64 75.0118 9.856 74.5798 10.288C74.1638 10.72 73.9558 11.24 73.9558 11.848V19H70.2358ZM93.2279 19V6.688H96.9719V19H93.2279ZM95.0999 5.296C94.5079 5.296 93.9959 5.08 93.5639 4.648C93.1319 4.216 92.9159 3.704 92.9159 3.112C92.9159 2.504 93.1319 1.984 93.5639 1.552C93.9959 1.12 94.5079 0.904 95.0999 0.904C95.7079 0.904 96.2199 1.12 96.6359 1.552C97.0679 1.984 97.2839 2.504 97.2839 3.112C97.2839 3.704 97.0679 4.216 96.6359 4.648C96.2199 5.08 95.7079 5.296 95.0999 5.296ZM99.6967 19V1.48H103.417V19H99.6967ZM112.597 19C111.205 19 109.981 18.744 108.925 18.232C107.869 17.704 107.045 16.984 106.453 16.072C105.877 15.144 105.589 14.072 105.589 12.856C105.589 11.512 105.869 10.36 106.429 9.4C106.989 8.44 107.733 7.704 108.661 7.192C109.605 6.664 110.645 6.4 111.781 6.4C113.077 6.4 114.157 6.672 115.021 7.216C115.901 7.76 116.565 8.504 117.013 9.448C117.461 10.392 117.685 11.456 117.685 12.64C117.685 12.864 117.669 13.112 117.637 13.384C117.621 13.656 117.597 13.872 117.565 14.032H109.501C109.645 14.672 109.981 15.152 110.509 15.472C111.037 15.776 111.693 15.928 112.477 15.928H116.245V19H112.597ZM109.405 11.704H114.085C114.037 11.032 113.821 10.48 113.437 10.048C113.053 9.616 112.501 9.4 111.781 9.4C111.029 9.4 110.461 9.64 110.077 10.12C109.709 10.584 109.485 11.112 109.405 11.704Z" fill="#F9F9F9"/>
</svg>
