<svg width="69" height="66" viewBox="0 0 69 66" fill="none" xmlns="http://www.w3.org/2000/svg">
<g clip-path="url(#clip0)">
<path d="M20.5293 62.5992C22.7832 60.4059 24.0245 57.4937 24.0244 54.3989C24.0244 52.0808 27.8953 47.4145 31.8537 45.8188C32.9986 45.3574 34.5594 44.9982 35.4938 45.9075C36.4748 46.8619 36.5762 46.9608 36.5796 46.964C36.5833 46.9677 36.5872 46.9716 36.591 46.9752C38.0876 48.4316 40.0834 49.2336 42.2112 49.2336C44.3386 49.2335 46.3345 48.4313 47.8311 46.9749L67.4206 27.9117C67.7934 27.5491 68.0027 27.0573 68.0027 26.5445C68.0027 26.0317 67.7934 25.5398 67.4206 25.1773L42.1308 0.566837C41.3548 -0.188295 40.0968 -0.188295 39.3208 0.566837L19.7312 19.6301C18.2346 21.0865 17.4103 23.0287 17.4103 25.0993C17.4103 27.1697 18.2345 29.1119 19.7331 30.5704C19.7386 30.5758 19.8168 30.6516 20.8285 31.636C21.2254 32.0224 21.4105 32.4963 21.4105 33.1277C21.4105 36.9212 15.2266 42.7973 12.1026 42.7973C5.52918 42.7973 0.180929 48.0017 0.180664 54.3988V54.399C0.180797 57.4939 1.42212 60.4062 3.676 62.5991C5.92988 64.7926 8.92251 66.0004 12.1026 66.0004C15.2827 66.0004 18.2756 64.7924 20.5293 62.5992ZM40.7257 4.66863L63.2056 26.5446L54.7756 34.7483L32.2957 12.8719L40.7257 4.66863ZM6.48597 59.8645C4.98263 58.4018 4.15473 56.4607 4.15459 54.399C4.15486 50.1342 7.72027 46.6645 12.1026 46.6645C14.6862 46.6645 17.9325 44.9536 20.7867 42.0873C22.1691 40.6991 25.3844 37.0472 25.3844 33.1277C25.3844 31.4744 24.7806 30.013 23.6384 28.9014C22.6326 27.9228 22.545 27.8377 22.541 27.8338C21.7951 27.1078 21.3844 26.1368 21.3844 25.0993C21.3844 24.0618 21.7953 23.0906 22.5412 22.3646L29.4859 15.6064L51.9657 37.4827L45.0212 44.2406C44.2751 44.9666 43.2771 45.3663 42.2109 45.3664C41.1449 45.3664 40.147 44.9666 39.401 44.2407C39.3598 44.2004 39.17 44.0155 38.3038 43.1727C36.3641 41.285 33.5333 40.9559 30.333 42.246C25.5778 44.1627 20.0504 49.8889 20.0504 54.3988C20.0504 56.4606 19.2227 58.4017 17.7193 59.8645C16.216 61.3275 14.2214 62.1331 12.1026 62.1331C9.98395 62.1332 7.98917 61.3276 6.48597 59.8645Z" fill="white"/>
<path d="M12.1022 56.3322C13.1996 56.3322 14.0892 55.4665 14.0892 54.3986C14.0892 53.3307 13.1996 52.465 12.1022 52.465C11.0048 52.465 10.1152 53.3307 10.1152 54.3986C10.1152 55.4665 11.0048 56.3322 12.1022 56.3322Z" fill="white"/>
</g>
<defs>
<clipPath id="clip0">
<rect width="67.8219" height="66" fill="white" transform="translate(0.180664)"/>
</clipPath>
</defs>
</svg>
