<svg width="69" height="66" viewBox="0 0 69 66" fill="none" xmlns="http://www.w3.org/2000/svg">
<g clip-path="url(#clip0)">
<path d="M68.0025 40.2147V25.7853L59.5709 24.2117C59.2573 23.3522 58.8972 22.5067 58.493 21.6824L63.3125 14.7673L52.8276 4.56358L45.7216 9.25406C44.8745 8.86079 44.0057 8.51033 43.1225 8.20518L41.5055 0H26.6777L25.0607 8.20518C24.1775 8.51033 23.3087 8.86079 22.4616 9.25406L15.3556 4.56409L4.87022 14.7673L9.69017 21.6824C9.28605 22.5067 8.92591 23.3522 8.61235 24.2117L0.180664 25.7853V40.2147L8.61235 41.7883C8.92591 42.6478 9.28605 43.4933 9.69017 44.3176L4.87074 51.2327L15.3556 61.4364L22.4616 56.7459C23.3087 57.1392 24.1775 57.4897 25.0607 57.7948L26.6777 66H41.5055L43.1225 57.7948C44.0057 57.4897 44.8745 57.1392 45.7216 56.7459L52.8276 61.4359L63.313 51.2327L58.493 44.3176C58.8972 43.4933 59.2573 42.6478 59.5709 41.7883L68.0025 40.2147ZM58.1805 50.7583L52.3402 56.4418L45.9917 52.2518L44.9335 52.8017C43.6203 53.4845 42.2335 54.0439 40.8126 54.4649L39.6655 54.8043L38.2213 62.1328H29.9619L28.5177 54.8043L27.3706 54.4644C25.9492 54.0439 24.5629 53.4845 23.2497 52.8017L22.1915 52.2518L15.8431 56.4418L10.0027 50.7583L14.3083 44.5804L13.7433 43.5507C13.0416 42.2727 12.4668 40.9232 12.0342 39.5405L11.6854 38.4236L4.1546 37.0188V28.9812L11.6854 27.5759L12.0347 26.4595C12.4668 25.0763 13.0416 23.7273 13.7433 22.4493L14.3083 21.4196L10.0027 15.2417L15.8431 9.5582L22.1915 13.7482L23.2497 13.1983C24.5629 12.5155 25.9497 11.9561 27.3706 11.5351L28.5183 11.1957L29.9619 3.86719H38.2213L39.6655 11.1957L40.8126 11.5356C42.234 11.9561 43.6203 12.5155 44.9335 13.1983L45.9917 13.7482L52.3402 9.5582L58.1805 15.2417L53.8749 21.4196L54.4399 22.4493C55.1416 23.7273 55.7164 25.0768 56.149 26.4595L56.4978 27.5764L64.0286 28.9812V37.0188L56.4978 38.4241L56.1485 39.5405C55.7164 40.9237 55.1416 42.2727 54.4399 43.5507L53.8749 44.5804L58.1805 50.7583Z" fill="white"/>
<path d="M34.0917 14.3585C23.5292 14.3585 14.9355 22.7213 14.9355 33C14.9355 43.2788 23.5292 51.6416 34.0917 51.6416C44.6542 51.6416 53.2478 43.2788 53.2478 33C53.2478 22.7213 44.6542 14.3585 34.0917 14.3585ZM29.7297 39.4207C29.2572 37.9735 28.9447 36.4709 28.8024 34.9336H39.3815C39.2387 36.4709 38.9266 37.973 38.4537 39.4207H29.7297ZM36.7301 43.2878C35.9907 44.5719 35.109 45.7859 34.0917 46.9108C33.0744 45.7859 32.1927 44.5719 31.4533 43.2878H36.7301ZM19.0394 34.9336H24.813C24.9325 36.4619 25.1948 37.9619 25.5907 39.4207H20.4194C19.7281 38.0314 19.2536 36.5218 19.0394 34.9336ZM38.4527 26.5794C38.9261 28.0271 39.2387 29.5291 39.3815 31.0664H28.8019C28.9447 29.5291 29.2578 28.0271 29.7307 26.5794H38.4527ZM31.4548 22.7122C32.1932 21.4297 33.0754 20.2171 34.0917 19.0927C35.1079 20.2171 35.9902 21.4297 36.7286 22.7122H31.4548ZM24.814 31.0664H19.0394C19.2536 29.4783 19.7281 27.9686 20.4194 26.5794H25.5912C25.1953 28.0381 24.9335 29.5382 24.814 31.0664ZM43.3704 34.9336H49.144C48.9298 36.5218 48.4553 38.0314 47.764 39.4207H42.5927C42.9885 37.9619 43.2509 36.4619 43.3704 34.9336ZM43.3694 31.0664C43.2499 29.5382 42.988 28.0381 42.5922 26.5794H47.764C48.4558 27.9686 48.9298 29.4783 49.144 31.0664H43.3694ZM44.9776 22.7122H41.1785C40.585 21.4367 39.8793 20.2091 39.0664 19.0409C41.3255 19.8058 43.344 21.0762 44.9776 22.7122ZM29.117 19.0409C28.3036 20.2091 27.5983 21.4367 27.0048 22.7122H23.2058C24.8393 21.0762 26.8574 19.8058 29.117 19.0409ZM23.2058 43.2878H27.0028C27.5957 44.5628 28.3005 45.7899 29.1129 46.9576C26.8553 46.1928 24.8383 44.9228 23.2058 43.2878ZM39.0705 46.9576C39.8829 45.7899 40.5876 44.5628 41.1806 43.2878H44.9771C43.3451 44.9228 41.3281 46.1928 39.0705 46.9576Z" fill="white"/>
</g>
<defs>
<clipPath id="clip0">
<rect width="67.8219" height="66" fill="white" transform="translate(0.180664)"/>
</clipPath>
</defs>
</svg>
