<svg width="79" height="82" viewBox="0 0 79 82" fill="none" xmlns="http://www.w3.org/2000/svg">
<g clip-path="url(#clip0)">
<path d="M67.4257 59.6251C67.8391 57.3405 67.8285 54.9945 67.3944 52.714L73.3559 37.7359C73.3565 37.7259 73.3565 37.716 73.3559 37.7061C74.322 34.9525 75.7377 32.3935 77.5407 30.1418C77.9893 29.6485 78.1697 28.9535 78.021 28.2921L75.5765 17.302C75.5474 17.1872 75.5036 17.0769 75.4463 16.9741C75.4359 16.9538 75.432 16.9294 75.4216 16.9104C75.4112 16.8914 75.3656 16.8454 75.3396 16.8101C75.2863 16.7289 75.2248 16.654 75.1561 16.5865C75.1108 16.5534 75.0634 16.5235 75.0142 16.4971C74.9507 16.4485 74.8832 16.4058 74.8124 16.3697C74.7143 16.3311 74.612 16.3052 74.5079 16.2925C74.4779 16.2925 74.4519 16.2721 74.422 16.2694C74.1725 16.2521 73.9235 16.31 73.7048 16.4361C73.6852 16.447 73.6618 16.451 73.6423 16.4632H73.6293L64.4384 22.4352C63.8818 22.7941 63.5364 23.4207 63.5195 24.102C63.2642 27.0279 62.5239 29.8857 61.3314 32.5485V32.5634L58.352 40.0613C56.8897 39.2519 55.3242 38.6633 53.7026 38.3132C54.3164 33.9022 54.5421 29.442 54.3768 24.9883C56.7998 21.9617 57.9627 18.0537 57.6075 14.1311C56.7939 6.23343 49.9383 0.529733 49.6454 0.289877C49.2052 -0.071002 48.5926 -0.0981423 48.1246 0.2225C47.6565 0.543142 47.4381 1.13961 47.5823 1.70327C48.2526 4.32407 47.6721 7.08986 42.7207 12.7773C40.4961 15.0136 39.7909 18.4283 40.9362 21.4189C41.374 22.5627 42.0014 23.6177 42.7897 24.5357C42.4747 26.6293 42.2274 28.6119 42.0569 30.5429C41.7633 33.7368 41.6876 36.9484 41.8304 40.1534C40.6692 40.8088 39.5821 41.5975 38.5893 42.5045L32.2764 14.3994C32.2764 14.3709 32.2504 14.3506 32.2426 14.3248C32.2214 14.2345 32.1908 14.1468 32.1515 14.0633L25.7032 1.66532C25.0578 0.424403 23.6945 -0.213268 22.3748 0.108522C21.0551 0.430311 20.1056 1.63192 20.0567 3.04212L19.5673 17.1286C19.5676 17.2302 19.5785 17.3316 19.5998 17.4308C19.5998 17.4525 19.5998 17.4714 19.5998 17.4918L26.0403 46.1078C25.0243 46.1545 24.0157 46.3112 23.0309 46.5753L15.9461 28.7623C15.378 27.4006 13.8713 26.7581 12.5489 27.3137L1.7206 31.9807C0.395365 32.5566 -0.234425 34.1385 0.310932 35.5216L9.91958 59.6536C4.28808 59.9614 -0.0832377 64.8831 0.0621157 70.7521C0.207469 76.6211 4.8166 81.3017 10.4559 81.307H67.7277C71.4479 81.2509 74.8567 79.1327 76.6701 75.7504C78.4835 72.3681 78.426 68.2356 76.5191 64.9095C74.6123 61.5833 71.1459 59.569 67.4257 59.6251ZM66.0993 24.5492L71.5558 21.0042L69.6241 25.861C69.3488 26.5525 69.6641 27.3455 70.3283 27.6321C70.9926 27.9188 71.7542 27.5905 72.0296 26.899L73.9612 22.0422L75.4073 28.5644C73.8601 30.5296 72.5891 32.7137 71.6326 35.0514C70.2755 35.7063 68.7171 35.7403 67.3349 35.1451C65.9527 34.5499 64.8727 33.3799 64.3564 31.9184C65.2706 29.5606 65.8575 27.0793 66.0993 24.5492ZM63.1056 35.1883C63.9667 36.2843 65.0841 37.1313 66.3505 37.6478C67.3572 38.0985 68.4399 38.3362 69.5356 38.347C69.7993 38.346 70.0626 38.3293 70.3244 38.2969L66.1709 48.7313C64.9272 45.8765 63.0032 43.4 60.5817 41.537L63.1056 35.1883ZM45.2732 25.51L51.8126 25.926C51.853 27.1917 51.8386 28.5007 51.7983 29.8301C49.6198 29.9922 47.4305 29.8821 45.2771 29.5022C45.1131 29.4778 44.953 29.4588 44.7903 29.4358C44.9205 28.1593 45.0793 26.8665 45.2706 25.51H45.2732ZM44.6523 14.5972C48.1082 10.6281 49.8992 7.575 50.3157 4.70485C52.7998 7.36569 54.4395 10.7562 55.0133 14.4183C55.2867 17.6064 54.3399 20.7779 52.3788 23.2429C49.8077 23.0803 47.2647 22.9177 44.75 22.755C43.6694 21.7034 43.0478 20.2382 43.0289 18.6984C43.01 17.1585 43.5954 15.6773 44.6497 14.5972H44.6523ZM44.5534 32.1365L44.9309 32.188C46.6081 32.4581 48.3012 32.6079 49.9981 32.6366C50.537 32.6366 51.1045 32.5918 51.6733 32.5458C51.5549 34.2898 51.3609 36.1111 51.1149 37.9934C50.7934 37.9757 50.4784 37.9432 50.1556 37.9432C48.1905 37.9469 46.24 38.2965 44.3868 38.9772C44.3268 36.6955 44.3815 34.4122 44.5508 32.1365H44.5534ZM34.4853 47.9833L30.7613 31.4685C30.5872 30.752 29.8938 30.3128 29.2026 30.4814C28.5114 30.6499 28.0774 31.3639 28.227 32.0864L31.5735 46.9507C30.6534 46.6081 29.7029 46.3616 28.736 46.2149L23.0231 20.8335C23.8234 21.2128 24.6924 21.4097 25.5717 21.4108C25.6537 21.4108 25.7409 21.3986 25.8242 21.3945L26.7445 25.4856C26.8436 25.9645 27.1833 26.3503 27.6329 26.4948C28.0825 26.6393 28.572 26.52 28.9132 26.1827C29.2544 25.8453 29.3941 25.3426 29.2788 24.8677L28.3572 20.7739C29.2403 20.3668 30.0192 19.7495 30.6311 18.9715L36.439 44.8259C35.6848 45.8053 35.0301 46.8634 34.4853 47.9833ZM26.5323 18.5772C24.8676 18.9133 23.168 18.2048 22.1862 16.7654L22.3515 11.9927C22.8044 12.0807 23.264 12.1261 23.7247 12.1282C24.1697 12.1301 24.6134 12.0788 25.0471 11.9751C25.9252 11.735 26.7466 11.3097 27.4604 10.7256L29.6523 14.9374C29.3912 16.6848 28.17 18.1104 26.5323 18.5799V18.5772ZM22.9671 2.74671C23.1444 2.70395 23.3274 2.78923 23.4149 2.9554L26.2056 8.32844C25.7022 8.80259 25.101 9.15027 24.4484 9.34478C23.7813 9.47225 23.0951 9.4384 22.4426 9.24586L22.6547 3.13969C22.6618 2.95034 22.7898 2.78935 22.9671 2.74671ZM13.5472 29.8125L14.5417 32.314L9.72564 34.3901C9.15469 34.6397 8.8317 35.2735 8.95333 35.9057C9.07496 36.5378 9.60752 36.9932 10.2268 36.9946C10.3978 36.9942 10.5671 36.9593 10.7253 36.8916L15.5413 34.8142L16.5371 37.3185L14.1278 38.3579C13.5535 38.6053 13.2274 39.2408 13.349 39.8752C13.4707 40.5097 14.0061 40.9662 14.6276 40.9651C14.7982 40.9645 14.967 40.9295 15.1248 40.8621L17.5341 39.8228L18.5299 42.327L13.7099 44.4071C13.1357 44.6545 12.8096 45.29 12.9312 45.9245C13.0528 46.559 13.5883 47.0154 14.2098 47.0144C14.3803 47.0139 14.5492 46.9789 14.707 46.9114L19.523 44.8353L20.576 47.4819C16.3345 49.4975 13.2243 53.4386 12.148 58.1616L2.71374 34.4795L13.5472 29.8125ZM67.7277 78.5968H10.4559C6.14262 78.5968 2.64606 74.9565 2.64606 70.4661C2.64606 65.9756 6.14262 62.3354 10.4559 62.3354C11.2101 62.3327 11.9605 62.446 12.6829 62.6714C13.0732 62.7942 13.4962 62.7194 13.8257 62.4695C14.1553 62.2196 14.3533 61.8233 14.3607 61.399C14.4533 56.5694 17.135 52.2003 21.3058 50.0838C25.4765 47.9673 30.4344 48.4596 34.1456 51.3589C34.4735 51.613 34.8971 51.692 35.2893 51.5721C35.6816 51.4522 35.997 51.1474 36.141 50.7491C38.684 43.6932 45.7124 39.5429 52.8343 40.8914C59.9562 42.24 65.1307 48.7011 65.1244 56.2373C65.1269 57.7871 64.9053 59.3284 64.4671 60.8095C64.3303 61.2703 64.439 61.7721 64.7527 62.127C65.0663 62.482 65.5375 62.6367 65.99 62.5332C66.5607 62.4024 67.1433 62.3361 67.7277 62.3354C72.0409 62.3354 75.5375 65.9756 75.5375 70.4661C75.5375 74.9565 72.0409 78.5968 67.7277 78.5968Z" fill="white"/>
<path d="M50.3954 21.2753C50.8039 21.2769 51.1895 21.0787 51.4367 20.74C53.0617 18.4502 53.6897 15.5557 53.1679 12.7611C53.0568 12.2832 52.706 11.9054 52.2509 11.7739C51.7959 11.6424 51.3082 11.7777 50.9764 12.1276C50.6447 12.4775 50.5209 12.987 50.6531 13.4589C50.9647 15.4448 50.4997 17.4779 49.3619 19.1044C49.0661 19.515 49.0185 20.0644 49.239 20.5235C49.4595 20.9826 49.9102 21.2726 50.4032 21.2726L50.3954 21.2753Z" fill="white"/>
<path d="M48.6838 62.3354C47.7159 62.3385 46.7613 62.5702 45.8918 63.013C43.5503 59.6772 39.1782 58.7001 35.7279 60.7413C32.2776 62.7825 30.8462 67.1931 32.4004 70.9946C32.6049 71.4943 33.0762 71.8185 33.5979 71.8185C33.7733 71.819 33.9469 71.7821 34.1082 71.7101C34.4258 71.5692 34.6766 71.3028 34.8055 70.9694C34.9344 70.6359 34.9308 70.2628 34.7954 69.9322C34.5121 69.2446 34.3659 68.5041 34.3659 67.7559C34.3659 64.7622 36.6969 62.3354 39.5724 62.3354C41.5919 62.3249 43.4313 63.5433 44.2778 65.4522C44.306 65.4963 44.3364 65.5388 44.3689 65.5796C44.3895 65.626 44.4125 65.6713 44.4379 65.7151C44.4613 65.7449 44.4952 65.7584 44.5212 65.7869C44.5823 65.8529 44.6499 65.9119 44.723 65.9631C44.788 66.0152 44.8577 66.0606 44.9312 66.0986C45.0068 66.1316 45.0853 66.157 45.1655 66.1745C45.2456 66.1963 45.3276 66.2095 45.4102 66.2138C45.5793 66.2123 45.7471 66.1831 45.9074 66.127C45.9421 66.1204 45.9765 66.1118 46.0103 66.1013C46.0525 66.0728 46.0929 66.0416 46.1313 66.0078C46.1782 65.9861 46.2238 65.9617 46.268 65.9346C46.9517 65.359 47.8045 65.0451 48.6838 65.0456C50.2058 65.0482 51.5876 65.9712 52.2243 67.4103C52.5226 68.0914 53.2948 68.3917 53.9489 68.0811C54.6031 67.7705 54.8916 66.9666 54.5932 66.2856C53.5333 63.8805 51.2255 62.3378 48.6838 62.3354Z" fill="white"/>
<path d="M23.0599 52.9186C22.8633 52.985 18.2646 54.6409 18.2646 59.6251C18.2646 60.3735 18.8474 60.9802 19.5663 60.9802C20.2852 60.9802 20.8679 60.3735 20.8679 59.6251C20.9742 57.7347 22.1689 56.0993 23.8903 55.4879C24.5732 55.2492 24.941 54.4792 24.7116 53.7683C24.4823 53.0573 23.7428 52.6744 23.0599 52.9132V52.9186Z" fill="white"/>
<path d="M41.3772 51.4537C41.4806 51.481 41.5868 51.4947 41.6935 51.4944C42.29 51.4937 42.8098 51.071 42.9548 50.4685C43.5539 47.9381 45.7056 46.1381 48.2082 46.0739C48.927 46.072 49.5083 45.4638 49.5065 44.7154C49.5047 43.967 48.9205 43.3618 48.2017 43.3637C44.502 43.4148 41.3049 46.067 40.4309 49.8099C40.2563 50.5359 40.6799 51.2718 41.3772 51.4537Z" fill="white"/>
</g>
<defs>
<clipPath id="clip0">
<rect width="78.0979" height="81.3071" fill="white" transform="translate(0.0419922)"/>
</clipPath>
</defs>
</svg>
