<svg width="33" height="33" viewBox="0 0 33 33" fill="none" xmlns="http://www.w3.org/2000/svg">
<g clip-path="url(#clip0)">
<path d="M30.1964 14.7627C30.1405 14.7157 30.0745 14.6822 30.0035 14.665L30.0103 14.6684L28.9833 14.4151L28.4253 13.5114C28.29 13.2883 27.9996 13.2171 27.7765 13.3524C27.7114 13.3918 27.6569 13.4463 27.6175 13.5114L27.0561 14.4219L26.0291 14.6684C25.7731 14.7187 25.6064 14.9671 25.6567 15.2232C25.6718 15.2997 25.7057 15.3715 25.7552 15.4318L26.4399 16.2465L26.3611 17.3112C26.3416 17.5713 26.5367 17.7981 26.7968 17.8176C26.8701 17.8231 26.9436 17.8115 27.0116 17.7836L28.0009 17.3796L28.9628 17.7733C29.1954 17.8915 29.4798 17.7988 29.598 17.5662C29.6379 17.4874 29.6551 17.3991 29.6474 17.3112L29.5687 16.2431L30.2534 15.4284C30.4214 15.2288 30.3959 14.9308 30.1964 14.7627ZM28.7232 15.7844C28.643 15.8796 28.6036 16.0026 28.6136 16.1267L28.6513 16.6231L28.1926 16.4348C28.0825 16.3917 27.9603 16.3917 27.8502 16.4348L27.395 16.6231L27.4326 16.1267C27.4389 16.0007 27.3945 15.8775 27.3094 15.7844L27.0013 15.4181L27.4668 15.288C27.5926 15.2581 27.7003 15.1775 27.7647 15.0655L28.018 14.6547L28.2816 15.0792C28.3467 15.1856 28.4514 15.2619 28.5725 15.2914L29.0552 15.4078L28.7232 15.7844Z" fill="#0E0E0E"/>
<path d="M28.9661 29.1918C28.8876 29.0746 28.7609 28.9986 28.6206 28.9845H28.5624C19.9753 28.9924 13.0077 22.0375 12.9998 13.4504C12.9953 8.47148 15.3755 3.79158 19.4018 0.862656C19.6173 0.715628 19.6728 0.421743 19.5258 0.206165C19.4377 0.0769379 19.2912 -0.000256104 19.1348 6.38427e-07C10.022 0.000428543 2.63513 7.38811 2.63556 16.5009C2.63599 25.6135 10.0237 33.0005 19.1364 33C22.6215 32.9998 26.017 31.8962 28.8362 29.8472C29.053 29.7021 29.1111 29.4087 28.9661 29.1918ZM5.77364 24.4737C1.36819 17.1006 3.77396 7.55217 11.1471 3.14673C13.1463 1.95227 15.3881 1.22201 17.7072 1.00986C16.1189 2.39806 14.8106 4.07699 13.8526 5.95643C9.73458 14.0855 12.9861 24.0139 21.1152 28.132C22.9834 29.0784 25.0147 29.6605 27.1006 29.8472C19.7274 34.2527 10.1791 31.8469 5.77364 24.4737Z" fill="#0E0E0E"/>
<path d="M23.682 19.3671C23.6261 19.32 23.5601 19.2866 23.4891 19.2694L23.4754 19.266L22.1334 18.9236L21.4111 17.7563C21.2758 17.5332 20.9854 17.462 20.7623 17.5973C20.6972 17.6367 20.6427 17.6913 20.6033 17.7563L19.8775 18.9305L18.5664 19.2625C18.3102 19.3118 18.1425 19.5594 18.1918 19.8156C18.2072 19.8958 18.2431 19.9706 18.296 20.0328L19.1895 21.0871L19.0868 22.4564C19.0673 22.7166 19.2623 22.9434 19.5225 22.9629C19.5957 22.9684 19.6692 22.9567 19.7372 22.9288L21.0141 22.4051L22.2635 22.9186C22.4961 23.0367 22.7805 22.9441 22.8987 22.7115C22.9387 22.6327 22.9559 22.5444 22.9482 22.4564L22.8455 21.0871L23.7389 20.0328C23.907 19.8332 23.8815 19.5352 23.682 19.3671ZM21.9862 20.6353C21.9061 20.7305 21.8667 20.8535 21.8767 20.9776L21.9383 21.7855L21.1886 21.4774C21.0786 21.4342 20.9564 21.4342 20.8463 21.4774L20.1 21.782L20.1377 20.9468C20.1439 20.8208 20.0996 20.6976 20.0145 20.6044L19.5044 20.002L20.2917 19.8102C20.418 19.777 20.5247 19.6927 20.5861 19.5775L21.0038 18.8928L21.4283 19.5775C21.4934 19.6838 21.5981 19.7602 21.7192 19.7897L22.5066 19.9814L21.9862 20.6353Z" fill="#0E0E0E"/>
<path d="M25.842 6.8107C25.7861 6.76363 25.7202 6.73017 25.6491 6.71297L25.6252 6.70955L23.3384 6.15156L22.1061 4.17293C21.9708 3.94982 21.6803 3.87861 21.4572 4.01392C21.3922 4.05337 21.3376 4.10789 21.2982 4.17293L20.059 6.17552L17.7928 6.70612C17.5383 6.76338 17.3783 7.01618 17.4357 7.2707C17.4528 7.34678 17.4885 7.41739 17.5395 7.47635L19.0628 9.27355L18.8882 11.6219C18.8687 11.8821 19.0638 12.1088 19.3239 12.1284C19.3972 12.1338 19.4707 12.1222 19.5386 12.0943L21.7158 11.2008L23.8656 12.084C24.0982 12.2022 24.3826 12.1095 24.5008 11.8769C24.5408 11.7982 24.558 11.7099 24.5503 11.6219L24.3757 9.27355L25.899 7.47635C26.0671 7.27678 26.0416 6.97878 25.842 6.8107ZM23.5062 8.80799C23.426 8.90324 23.3866 9.02622 23.3966 9.15031L23.5301 10.9304L21.8801 10.2457C21.7701 10.203 21.6479 10.203 21.5378 10.2457L19.8912 10.9304L20.0247 9.15031C20.031 9.02434 19.9867 8.9011 19.9015 8.80799L18.7376 7.44897L20.4698 7.02791C20.5953 6.99753 20.7029 6.91716 20.7676 6.8054L21.6987 5.29917L22.6367 6.81567C22.7018 6.92204 22.8065 6.99838 22.9277 7.02791L24.6598 7.44897L23.5062 8.80799Z" fill="#0E0E0E"/>
</g>
<defs>
<clipPath id="clip0">
<rect width="33" height="33" fill="white"/>
</clipPath>
</defs>
</svg>
