<svg width="128" height="21" viewBox="0 0 128 21" fill="none" xmlns="http://www.w3.org/2000/svg">
<path d="M7.736 20.312C6.29733 20.312 5.02333 20.026 3.914 19.454C2.822 18.8647 1.964 18.024 1.34 16.932C0.716 15.84 0.404 14.5487 0.404 13.058V1.8H4.694V13.214C4.694 13.838 4.81533 14.4013 5.058 14.904C5.30067 15.4067 5.64733 15.8053 6.098 16.1C6.566 16.3947 7.112 16.542 7.736 16.542C8.36 16.542 8.89733 16.3947 9.348 16.1C9.79867 15.8053 10.1453 15.4067 10.388 14.904C10.648 14.4013 10.778 13.838 10.778 13.214V1.8H15.068V13.214C15.068 13.838 15.1893 14.4013 15.432 14.904C15.6747 15.4067 16.0213 15.8053 16.472 16.1C16.94 16.3947 17.486 16.542 18.11 16.542C18.734 16.542 19.2713 16.3947 19.722 16.1C20.19 15.8053 20.5453 15.4067 20.788 14.904C21.0307 14.4013 21.152 13.838 21.152 13.214V1.8H25.442V13.058C25.442 14.5487 25.13 15.84 24.506 16.932C23.882 18.024 23.0153 18.8647 21.906 19.454C20.814 20.026 19.5487 20.312 18.11 20.312C17.3993 20.312 16.7233 20.2253 16.082 20.052C15.458 19.896 14.8773 19.6533 14.34 19.324C13.82 18.9947 13.3433 18.596 12.91 18.128C12.494 18.596 12.0173 18.9947 11.48 19.324C10.9427 19.636 10.362 19.8787 9.738 20.052C9.114 20.2253 8.44667 20.312 7.736 20.312ZM35.3295 20C33.8215 20 32.4955 19.7227 31.3515 19.168C30.2075 18.596 29.3148 17.816 28.6735 16.828C28.0495 15.8227 27.7375 14.6613 27.7375 13.344C27.7375 11.888 28.0408 10.64 28.6475 9.6C29.2542 8.56 30.0602 7.76267 31.0655 7.208C32.0882 6.636 33.2148 6.35 34.4455 6.35C35.8495 6.35 37.0195 6.64467 37.9555 7.234C38.9088 7.82333 39.6282 8.62933 40.1135 9.652C40.5989 10.6573 40.8415 11.81 40.8415 13.11C40.8415 13.3353 40.8242 13.604 40.7895 13.916C40.7722 14.2107 40.7462 14.4447 40.7115 14.618H31.9755C32.0795 15.0687 32.2788 15.45 32.5735 15.762C32.8682 16.074 33.2408 16.308 33.6915 16.464C34.1422 16.6027 34.6448 16.672 35.1995 16.672H39.2815V20H35.3295ZM31.8715 12.096H36.9415C36.9068 11.8187 36.8548 11.55 36.7855 11.29C36.7162 11.03 36.6035 10.8047 36.4475 10.614C36.3088 10.406 36.1442 10.2327 35.9535 10.094C35.7628 9.938 35.5375 9.81667 35.2775 9.73C35.0348 9.64333 34.7575 9.6 34.4455 9.6C34.0468 9.6 33.6915 9.66933 33.3795 9.808C33.0675 9.94667 32.8075 10.1373 32.5995 10.38C32.3915 10.6053 32.2268 10.874 32.1055 11.186C32.0015 11.4807 31.9235 11.784 31.8715 12.096ZM50.2356 20.312C48.797 20.312 47.5403 20.0173 46.4656 19.428C45.391 18.8387 44.559 17.998 43.9696 16.906C43.3803 15.814 43.0856 14.54 43.0856 13.084V1.02H47.1156V8.118H47.1936C47.4536 7.754 47.7743 7.442 48.1556 7.182C48.5543 6.90467 48.9876 6.69667 49.4556 6.558C49.941 6.41933 50.4523 6.35 50.9896 6.35C52.255 6.35 53.3643 6.636 54.3176 7.208C55.271 7.78 56.0163 8.56867 56.5536 9.574C57.1083 10.5793 57.3856 11.758 57.3856 13.11C57.3856 14.15 57.221 15.112 56.8916 15.996C56.5623 16.88 56.0856 17.6513 55.4616 18.31C54.855 18.9513 54.1096 19.4453 53.2256 19.792C52.359 20.1387 51.3623 20.312 50.2356 20.312ZM50.2356 16.828C50.8596 16.828 51.397 16.6807 51.8476 16.386C52.2983 16.074 52.645 15.658 52.8876 15.138C53.1476 14.6007 53.2776 14.0027 53.2776 13.344C53.2776 12.6853 53.1476 12.096 52.8876 11.576C52.645 11.056 52.2983 10.6487 51.8476 10.354C51.397 10.042 50.8596 9.886 50.2356 9.886C49.6116 9.886 49.0656 10.042 48.5976 10.354C48.147 10.6487 47.8003 11.056 47.5576 11.576C47.315 12.096 47.1936 12.6853 47.1936 13.344C47.1936 14.0027 47.315 14.6007 47.5576 15.138C47.8003 15.658 48.147 16.074 48.5976 16.386C49.0656 16.6807 49.6116 16.828 50.2356 16.828ZM59.9517 20V16.36H67.7257C68.0724 16.36 68.3844 16.2733 68.6617 16.1C68.9391 15.9267 69.1557 15.7013 69.3117 15.424C69.4851 15.1467 69.5717 14.8433 69.5717 14.514C69.5717 14.1673 69.4851 13.8553 69.3117 13.578C69.1557 13.3007 68.9391 13.0753 68.6617 12.902C68.3844 12.7287 68.0724 12.642 67.7257 12.642H64.9177C63.8604 12.642 62.8984 12.434 62.0317 12.018C61.1651 11.602 60.4717 10.9953 59.9517 10.198C59.4491 9.38333 59.1977 8.41267 59.1977 7.286C59.1977 6.17667 59.4404 5.21467 59.9257 4.4C60.4111 3.58533 61.0697 2.95267 61.9017 2.502C62.7337 2.034 63.6524 1.8 64.6577 1.8H72.6917V5.44H65.1517C64.8397 5.44 64.5537 5.518 64.2937 5.674C64.0337 5.83 63.8344 6.038 63.6957 6.298C63.5571 6.558 63.4877 6.844 63.4877 7.156C63.4877 7.468 63.5571 7.754 63.6957 8.014C63.8344 8.25667 64.0337 8.456 64.2937 8.612C64.5537 8.768 64.8397 8.846 65.1517 8.846H68.0897C69.2511 8.846 70.2564 9.07133 71.1057 9.522C71.9724 9.95533 72.6397 10.5707 73.1077 11.368C73.5931 12.148 73.8357 13.0667 73.8357 14.124C73.8357 15.372 73.5844 16.438 73.0817 17.322C72.5964 18.1887 71.9377 18.856 71.1057 19.324C70.2737 19.7747 69.3551 20 68.3497 20H59.9517ZM76.1721 20V12.122C76.1721 11.03 76.4234 10.0507 76.9261 9.184C77.4461 8.3 78.1827 7.60667 79.1361 7.104C80.0894 6.60133 81.2247 6.35 82.5421 6.35C83.2007 6.35 83.8074 6.428 84.3621 6.584C84.9167 6.72267 85.4194 6.922 85.8701 7.182C86.3381 7.42467 86.7367 7.71933 87.0661 8.066H87.1181C87.4647 7.71933 87.8634 7.42467 88.3141 7.182C88.7821 6.922 89.2934 6.72267 89.8481 6.584C90.4201 6.428 91.0354 6.35 91.6941 6.35C93.0114 6.35 94.1467 6.60133 95.1001 7.104C96.0534 7.60667 96.7901 8.3 97.3101 9.184C97.8301 10.0507 98.0901 11.03 98.0901 12.122V20H94.0341V12.252C94.0341 11.8187 93.9214 11.4287 93.6961 11.082C93.4881 10.718 93.2021 10.4233 92.8381 10.198C92.4741 9.97267 92.0581 9.86 91.5901 9.86C91.1221 9.86 90.6974 9.97267 90.3161 10.198C89.9521 10.4233 89.6661 10.718 89.4581 11.082C89.2501 11.4287 89.1461 11.8187 89.1461 12.252V20H85.1161V12.252C85.1161 11.8187 85.0034 11.4287 84.7781 11.082C84.5701 10.718 84.2754 10.4233 83.8941 10.198C83.5301 9.97267 83.1141 9.86 82.6461 9.86C82.1781 9.86 81.7534 9.97267 81.3721 10.198C81.0081 10.4233 80.7221 10.718 80.5141 11.082C80.3061 11.4287 80.2021 11.8187 80.2021 12.252V20H76.1721ZM101.08 20V6.662H105.136V20H101.08ZM103.108 5.154C102.467 5.154 101.912 4.92 101.444 4.452C100.976 3.984 100.742 3.42933 100.742 2.788C100.742 2.14667 100.976 1.592 101.444 1.124C101.912 0.638666 102.467 0.396 103.108 0.396C103.75 0.396 104.304 0.638666 104.772 1.124C105.24 1.592 105.474 2.14667 105.474 2.788C105.474 3.42933 105.24 3.984 104.772 4.452C104.304 4.92 103.75 5.154 103.108 5.154ZM108.088 20V1.02H112.118V20H108.088ZM122.064 20C120.556 20 119.23 19.7227 118.086 19.168C116.942 18.596 116.049 17.816 115.408 16.828C114.784 15.8227 114.472 14.6613 114.472 13.344C114.472 11.888 114.775 10.64 115.382 9.6C115.989 8.56 116.795 7.76267 117.8 7.208C118.823 6.636 119.949 6.35 121.18 6.35C122.584 6.35 123.754 6.64467 124.69 7.234C125.643 7.82333 126.363 8.62933 126.848 9.652C127.333 10.6573 127.576 11.81 127.576 13.11C127.576 13.3353 127.559 13.604 127.524 13.916C127.507 14.2107 127.481 14.4447 127.446 14.618H118.71C118.814 15.0687 119.013 15.45 119.308 15.762C119.603 16.074 119.975 16.308 120.426 16.464C120.877 16.6027 121.379 16.672 121.934 16.672H126.016V20H122.064ZM118.606 12.096H123.676C123.641 11.8187 123.589 11.55 123.52 11.29C123.451 11.03 123.338 10.8047 123.182 10.614C123.043 10.406 122.879 10.2327 122.688 10.094C122.497 9.938 122.272 9.81667 122.012 9.73C121.769 9.64333 121.492 9.6 121.18 9.6C120.781 9.6 120.426 9.66933 120.114 9.808C119.802 9.94667 119.542 10.1373 119.334 10.38C119.126 10.6053 118.961 10.874 118.84 11.186C118.736 11.4807 118.658 11.784 118.606 12.096Z" fill="#374CA4"/>
</svg>
