<svg width="74" height="71" viewBox="0 0 74 71" fill="none" xmlns="http://www.w3.org/2000/svg">
<g clip-path="url(#clip0)">
<path d="M63.1833 47.2698C63.1811 47.2675 63.1811 47.2653 63.1788 47.2631C63.1765 47.2609 63.1742 47.2609 63.1719 47.2587L59.9571 44.1302C59.956 44.1291 59.956 44.128 59.9549 44.1269C59.9537 44.1258 59.9526 44.1258 59.9514 44.1247L47.8618 32.3609L67.2292 13.5137C67.2452 13.4982 67.2531 13.476 67.268 13.4582C67.3272 13.3928 67.3751 13.3207 67.4184 13.2419C67.4367 13.2108 67.4629 13.1853 67.4766 13.152C67.4823 13.1387 67.4834 13.1265 67.488 13.1132C67.4925 13.0999 67.5028 13.0899 67.5074 13.0777L70.7005 3.69574C70.7153 3.65469 70.7073 3.61253 70.7164 3.57149C70.7336 3.49716 70.7438 3.42394 70.7438 3.34739C70.7438 3.27085 70.7324 3.19763 70.7164 3.1233C70.7073 3.08225 70.7153 3.0401 70.7005 2.99905C70.6914 2.97354 70.6708 2.95578 70.6606 2.93027C70.631 2.85927 70.5899 2.79825 70.5454 2.73391C70.5044 2.67511 70.4668 2.61854 70.4155 2.57083C70.3665 2.52313 70.3106 2.48652 70.2513 2.44769C70.1852 2.40443 70.1214 2.36449 70.0473 2.33454C70.0222 2.32344 70.0028 2.30347 69.9754 2.2946C69.9333 2.28018 69.8911 2.28794 69.8478 2.27907C69.7714 2.26243 69.6973 2.25133 69.6163 2.25133C69.5388 2.25133 69.4659 2.26243 69.3906 2.27685C69.3473 2.28572 69.3028 2.27796 69.2595 2.29238L59.6186 5.39863C59.6094 5.40196 59.6026 5.40972 59.5946 5.41194C59.3849 5.47961 59.2093 5.60053 59.0736 5.7625L39.8008 24.5165L21.2633 6.47694C21.2622 6.47583 21.2622 6.47472 21.261 6.47361C21.2599 6.4725 21.2588 6.4725 21.2576 6.47139L14.9409 0.324348C14.4951 -0.109418 13.7747 -0.109418 13.3289 0.324348L0.430984 12.8758C-0.0147552 13.3096 -0.0147552 14.0107 0.430984 14.4445L25.2909 38.6366L15.6146 48.0541C15.6135 48.0552 15.6123 48.0552 15.6112 48.0563C15.6101 48.0574 15.6101 48.0585 15.6089 48.0596L12.3896 51.1925C12.3884 51.1936 12.3873 51.1936 12.3861 51.1947C12.385 51.1958 12.385 51.197 12.3839 51.1981L3.04842 60.2827C3.04614 60.285 3.04614 60.2872 3.04386 60.2883C2.16036 61.1536 2.16036 62.5581 3.04842 63.4212L7.88429 68.1271C8.32889 68.5598 8.91257 68.7761 9.49625 68.7761C10.0799 68.7761 10.6636 68.5598 11.1082 68.1271L33.353 46.4799L58.2141 70.6731C58.4352 70.8906 58.7271 70.9993 59.0189 70.9993C59.3108 70.9993 59.6026 70.8906 59.8249 70.6742L72.7228 58.1228C73.1686 57.689 73.1686 56.9879 72.7228 56.5541L63.1833 47.2698ZM22.8662 53.5488L18.0303 48.8429L40.6057 26.8728C40.6068 26.8717 40.6079 26.8717 40.6091 26.8706C40.6102 26.8695 40.6102 26.8684 40.6114 26.8673L58.8057 9.16163V12.7283C58.8057 13.3418 59.3153 13.8376 59.9457 13.8376H63.6747L22.8662 53.5488ZM64.4864 6.16742L66.7173 8.33847L65.6013 11.6189H61.0835V7.26349L64.4864 6.16742ZM67.521 5.98105L66.91 5.38753L67.8231 5.09355L67.521 5.98105ZM2.84892 13.6601L14.1349 2.67733L15.618 4.12063L14.8121 4.90496C14.3663 5.33872 14.3663 6.03985 14.8121 6.47361C15.0344 6.68994 15.3262 6.79866 15.618 6.79866C15.9099 6.79866 16.2017 6.68994 16.424 6.47361L17.23 5.68928L18.842 7.25794L16.4229 9.61314C15.9771 10.0469 15.9771 10.748 16.4229 11.1818C16.6452 11.3981 16.937 11.5068 17.2289 11.5068C17.5207 11.5068 17.8125 11.3981 18.0348 11.1818L20.4539 8.8266L22.0682 10.3975L21.261 11.1818C20.8153 11.6156 20.8153 12.3167 21.261 12.7505C21.4833 12.9668 21.7752 13.0755 22.067 13.0755C22.3589 13.0755 22.6507 12.9668 22.873 12.7505L23.6801 11.9661L25.2921 13.5348L22.8719 15.89C22.4261 16.3238 22.4261 17.0249 22.8719 17.4586C23.0942 17.675 23.386 17.7837 23.6778 17.7837C23.9697 17.7837 24.2615 17.675 24.4838 17.4586L26.904 15.1034L28.516 16.6721L27.71 17.4564C27.2643 17.8902 27.2643 18.5913 27.71 19.0251C27.9323 19.2414 28.2241 19.3501 28.516 19.3501C28.8078 19.3501 29.0997 19.2414 29.322 19.0251L30.1279 18.2408L31.7399 19.8094L29.3197 22.1646C28.8739 22.5984 28.8739 23.2995 29.3197 23.7333C29.542 23.9496 29.8338 24.0583 30.1257 24.0583C30.4175 24.0583 30.7093 23.9496 30.9316 23.7333L33.3519 21.3781L34.9638 22.9467L34.1578 23.731C33.7121 24.1648 33.7121 24.8659 34.1578 25.2997C34.3801 25.516 34.672 25.6248 34.9638 25.6248C35.2557 25.6248 35.5475 25.516 35.7698 25.2997L36.5769 24.5165L38.1889 26.0851L26.9029 37.068L2.84892 13.6601ZM9.49511 66.5596L4.65924 61.8536C4.66038 61.8525 4.66038 61.8514 4.66152 61.8503L9.96593 56.6884L14.8018 61.3954L9.49511 66.5596ZM16.4138 59.8268L11.5779 55.1197L13.1921 53.5488C13.4144 53.7652 13.7051 53.8739 13.997 53.8739C14.2888 53.8739 14.5806 53.7652 14.8029 53.5488C15.2487 53.1151 15.2487 52.415 14.8029 51.9813L16.4172 50.4115L21.2531 55.1175L19.64 56.6872C19.1942 56.2535 18.4737 56.2535 18.028 56.6872C17.5823 57.121 17.5823 57.8221 18.028 58.2559L16.4138 59.8268ZM59.0189 68.3213L34.9638 44.9123L46.2498 33.9295L47.8629 35.4993L47.0558 36.2836C46.61 36.7163 46.61 37.4185 47.0558 37.8523C47.2781 38.0686 47.5699 38.1773 47.8618 38.1773C48.1536 38.1773 48.4454 38.0686 48.6677 37.8523L49.4749 37.068L51.0868 38.6366L48.6666 40.9918C48.2209 41.4256 48.2209 42.1267 48.6666 42.5605C48.8889 42.7768 49.1807 42.8855 49.4726 42.8855C49.7644 42.8855 50.0563 42.7768 50.2786 42.5605L52.6988 40.2053L54.3107 41.7739L53.5048 42.5583C53.059 42.992 53.059 43.6931 53.5048 44.1269C53.7271 44.3432 54.0189 44.452 54.3107 44.452C54.6026 44.452 54.8944 44.3432 55.1167 44.1269L55.9227 43.3426L57.5346 44.9112L55.1156 47.2664C54.6698 47.7002 54.6698 48.4013 55.1156 48.8351C55.3379 49.0514 55.6297 49.1601 55.9216 49.1601C56.2134 49.1601 56.5052 49.0514 56.7275 48.8351L59.1466 46.4799L60.7586 48.0485L59.9526 48.8351C59.508 49.27 59.508 49.9711 59.9537 50.4049C60.176 50.6201 60.4679 50.7288 60.7597 50.7288C61.0515 50.7288 61.3445 50.6201 61.5668 50.4038L62.3728 49.6194L63.9836 51.187L61.5634 53.5411C61.1177 53.9737 61.1177 54.676 61.5634 55.1097C61.7857 55.326 62.0775 55.4348 62.3694 55.4348C62.6612 55.4348 62.9531 55.326 63.1754 55.1097L65.5956 52.7556L67.2087 54.3254L66.4016 55.1097C65.9558 55.5435 65.9558 56.2446 66.4016 56.6784C66.6239 56.8947 66.9157 57.0034 67.2075 57.0034C67.4994 57.0034 67.7912 56.8947 68.0135 56.6784L68.8206 55.894L70.3038 57.3373L59.0189 68.3213Z" fill="white"/>
</g>
<defs>
<clipPath id="clip0">
<rect width="72.9599" height="71" fill="white" transform="translate(0.0976562)"/>
</clipPath>
</defs>
</svg>
