<svg width="79" height="76" viewBox="0 0 79 76" fill="none" xmlns="http://www.w3.org/2000/svg">
<g clip-path="url(#clip0)">
<path d="M20.9337 47.8317C21.663 47.4223 21.9127 46.5137 21.492 45.804C21.0708 45.0949 20.1377 44.8513 19.4084 45.2607C18.6791 45.6707 18.4288 46.5793 18.8501 47.2884C19.2708 47.9981 20.2044 48.2417 20.9337 47.8317Z" fill="white"/>
<path d="M14.6829 58.0767L22.3645 71.025C24.0221 73.8221 27.7509 74.8577 30.6997 73.1988C33.6175 71.5579 34.6203 67.9298 32.9323 65.0881L28.3563 57.374L32.3192 55.1474C33.0485 54.7369 33.2988 53.8294 32.8775 53.1197L30.894 49.7764C31.1305 49.7318 32.6856 49.4349 60.1104 44.1996C63.5007 44.0204 65.5319 40.4121 63.8195 37.5274L58.7501 28.983L61.9896 24.208C62.3078 23.7384 62.3269 23.1348 62.0379 22.6477L58.9872 17.5057C58.6982 17.0187 58.1495 16.7334 57.5745 16.7664L51.706 17.1091L46.0783 7.62305C45.2632 6.24884 43.8028 5.41678 42.1726 5.39706C42.1529 5.39648 42.1339 5.39648 42.1142 5.39648C40.5388 5.39648 39.1088 6.15955 38.2615 7.44968L18.3354 32.1518L5.38129 39.4298C0.286262 42.2913 -1.47862 48.6521 1.47317 53.6236C4.16995 58.1695 9.85545 59.9577 14.6829 58.0767ZM30.291 66.573C31.1335 67.9913 30.6348 69.8062 29.1732 70.6278C27.7068 71.4529 25.8394 70.9461 25.0065 69.5412L17.3797 56.6845L22.6636 53.7158C31.4904 68.5955 30.1492 66.3347 30.291 66.573ZM26.8309 54.8024L25.3056 52.2314L27.9475 50.747L29.4729 53.318L26.8309 54.8024ZM56.8166 19.7845L58.9246 23.3377L57.0448 26.1082L53.4113 19.9834L56.8166 19.7845ZM40.8129 9.07727C41.2222 8.42554 41.8717 8.35828 42.1351 8.36523C42.3955 8.36813 43.0443 8.44699 43.4358 9.10684L61.1775 39.0118C61.7555 39.9853 61.053 41.2094 59.8941 41.2372C59.6861 41.2418 59.5902 41.2784 59.0575 41.3752L40.2904 9.74234C40.6842 9.24948 40.7348 9.20193 40.8129 9.07727ZM38.2603 12.2588L55.893 41.9794L29.2816 47.0587L21.1901 33.4204L38.2603 12.2588ZM4.11513 52.1392C3.44541 51.0114 3.09148 49.7312 3.09148 48.4358C3.09148 45.7883 4.55367 43.3228 6.90664 42.0008L18.7954 35.3211L26.4222 48.1761L14.5334 54.8563C10.891 56.902 6.21785 55.6832 4.11513 52.1392Z" fill="white"/>
<path d="M16.2085 48.7727C15.7873 48.0629 14.8542 47.8194 14.1249 48.2294L11.4829 49.7137C10.7548 50.1231 9.81993 49.879 9.39927 49.1704C8.97801 48.4607 8.04493 48.2172 7.31562 48.6271C6.58631 49.0371 6.33606 49.9451 6.75732 50.6548C8.01275 52.7712 10.8132 53.5175 13.0083 52.2847L15.6502 50.8003C16.3795 50.3904 16.6298 49.483 16.2085 48.7727Z" fill="white"/>
<path d="M75.8724 8.5717L67.3728 13.1744C66.6369 13.5734 66.3718 14.4773 66.7817 15.1934C67.1905 15.9089 68.1188 16.1681 68.8564 15.7686L77.3555 11.1659C78.0919 10.767 78.3565 9.86299 77.9466 9.1469C77.5372 8.43022 76.6083 8.17278 75.8724 8.5717Z" fill="white"/>
<path d="M74.9814 23.9455L69.0879 22.4089C68.274 22.1967 67.4374 22.6663 67.2193 23.4584C67.0013 24.2504 67.4845 25.064 68.2984 25.2762L74.1925 26.8127C75.0111 27.0267 75.8435 26.5495 76.0604 25.7632C76.2785 24.9712 75.7953 24.1571 74.9814 23.9455Z" fill="white"/>
<path d="M60.1712 3.17861L58.5905 8.91432C58.3724 9.70637 58.855 10.5199 59.6689 10.7327C60.4823 10.9443 61.3188 10.4758 61.5375 9.68318L63.1177 3.94747C63.3357 3.15541 62.8531 2.34133 62.0392 2.12911C61.2259 1.91689 60.3893 2.38655 60.1712 3.17861Z" fill="white"/>
</g>
<defs>
<clipPath id="clip0">
<rect width="78.0979" height="76" fill="white" transform="translate(0.0419922)"/>
</clipPath>
</defs>
</svg>
